<svg width="177" height="45" viewBox="0 0 177 45" fill="none" xmlns="http://www.w3.org/2000/svg">
    <path fill-rule="evenodd" clip-rule="evenodd"
          d="M0 3C0 1.34315 1.34315 0 3 0H16L32 16V41C32 42.6569 30.6569 44 29 44H3C1.34315 44 0 42.6569 0 41V3Z"
          fill="#0062FF"/>
    <g opacity="0.1">
        <path d="M0 3C0 1.34315 1.34315 0 3 0H16V44H3C1.34315 44 0 42.6569 0 41V3Z" fill="url(#paint0_linear_303_910)"/>
        <path fill-rule="evenodd" clip-rule="evenodd" d="M16 0L32 16L16 22V0Z" fill="url(#paint1_linear_303_910)"/>
        <path fill-rule="evenodd" clip-rule="evenodd" d="M0 3C0 1.34315 1.34315 0 3 0H16L0 16V3Z"
              fill="url(#paint2_linear_303_910)"/>
    </g>
    <path opacity="0.35" fill-rule="evenodd" clip-rule="evenodd"
          d="M16 0L32 16H18.7287C17.2217 16 16 14.7783 16 13.2713V0Z" fill="white"/>
    <path d="M5.53697 27.5036C6.25293 26.8321 7.41373 26.8321 8.1297 27.5036C12.4763 31.5803 19.5237 31.5803 23.8703 27.5036C24.5863 26.8321 25.7471 26.8321 26.463 27.5036C27.179 28.1751 27.179 29.2638 26.463 29.9353C20.6845 35.3549 11.3155 35.3549 5.53697 29.9353C4.82101 29.2638 4.82101 28.1751 5.53697 27.5036Z"
          fill="white"/>
    <path d="M42.079 38V14.9H53.662C54.784 14.9 55.818 15.087 56.764 15.461C57.732 15.813 58.557 16.308 59.239 16.946C59.921 17.584 60.449 18.354 60.823 19.256C61.219 20.136 61.417 21.104 61.417 22.16C61.417 23.194 61.219 24.151 60.823 25.031C60.449 25.889 59.91 26.637 59.206 27.275C58.524 27.913 57.71 28.408 56.764 28.76C55.818 29.112 54.784 29.288 53.662 29.288H46.864V38H42.079ZM53.134 19.025H46.864V25.328H53.134C54.168 25.328 54.993 25.042 55.609 24.47C56.247 23.898 56.566 23.139 56.566 22.193C56.566 21.247 56.247 20.488 55.609 19.916C54.993 19.322 54.168 19.025 53.134 19.025Z"
          fill="#051E57"/>
    <path d="M68.2165 38.297C66.3685 38.297 64.8615 37.813 63.6955 36.845C62.5295 35.855 61.9465 34.579 61.9465 33.017C61.9465 31.389 62.5735 30.113 63.8275 29.189C65.0815 28.265 66.8085 27.803 69.0085 27.803C69.7125 27.803 70.4165 27.858 71.1205 27.968C71.8245 28.078 72.5175 28.243 73.1995 28.463V27.242C73.1995 26.252 72.8915 25.504 72.2755 24.998C71.6595 24.492 70.7575 24.239 69.5695 24.239C68.8435 24.239 68.0515 24.36 67.1935 24.602C66.3575 24.822 65.4005 25.174 64.3225 25.658L62.6725 22.325C64.0145 21.709 65.3125 21.247 66.5665 20.939C67.8425 20.631 69.0965 20.477 70.3285 20.477C72.6385 20.477 74.4314 21.038 75.7075 22.16C77.0055 23.26 77.6544 24.822 77.6544 26.846V38H73.1995V36.812C72.4735 37.318 71.7035 37.692 70.8895 37.934C70.0975 38.176 69.2065 38.297 68.2165 38.297ZM66.2695 32.918C66.2695 33.578 66.5555 34.106 67.1275 34.502C67.6995 34.876 68.4585 35.063 69.4045 35.063C70.1525 35.063 70.8345 34.975 71.4505 34.799C72.0885 34.601 72.6715 34.326 73.1995 33.974V31.4C72.6495 31.18 72.0665 31.026 71.4505 30.938C70.8565 30.828 70.2295 30.773 69.5695 30.773C68.5355 30.773 67.7215 30.971 67.1275 31.367C66.5555 31.741 66.2695 32.258 66.2695 32.918Z"
          fill="#051E57"/>
    <path d="M80.3449 44.897V20.807H84.7999V22.226C85.4819 21.676 86.2409 21.269 87.0769 21.005C87.9129 20.719 88.7819 20.576 89.6839 20.576C90.8939 20.576 92.0269 20.807 93.0829 21.269C94.1609 21.731 95.0959 22.358 95.8879 23.15C96.6799 23.942 97.2959 24.877 97.7359 25.955C98.1979 27.033 98.4289 28.188 98.4289 29.42C98.4289 30.652 98.1979 31.807 97.7359 32.885C97.2739 33.963 96.6469 34.898 95.8549 35.69C95.0629 36.482 94.1169 37.109 93.0169 37.571C91.9389 38.011 90.7839 38.231 89.5519 38.231C88.7159 38.231 87.8909 38.121 87.0769 37.901C86.2849 37.659 85.5479 37.318 84.8659 36.878V44.897H80.3449ZM88.9579 24.437C88.1439 24.437 87.3849 24.58 86.6809 24.866C85.9769 25.13 85.3719 25.526 84.8659 26.054V32.819C85.3499 33.303 85.9439 33.688 86.6479 33.974C87.3739 34.26 88.1439 34.403 88.9579 34.403C90.3659 34.403 91.5539 33.93 92.5219 32.984C93.4899 32.016 93.9739 30.828 93.9739 29.42C93.9739 28.012 93.4789 26.835 92.4889 25.889C91.5209 24.921 90.3439 24.437 88.9579 24.437Z"
          fill="#051E57"/>
    <path d="M116.004 35.855C114.948 36.713 113.859 37.34 112.737 37.736C111.637 38.132 110.405 38.33 109.041 38.33C107.743 38.33 106.522 38.099 105.378 37.637C104.256 37.175 103.277 36.548 102.441 35.756C101.627 34.964 100.978 34.029 100.494 32.951C100.032 31.851 99.8011 30.674 99.8011 29.42C99.8011 28.188 100.021 27.033 100.461 25.955C100.923 24.855 101.55 23.909 102.342 23.117C103.134 22.303 104.069 21.665 105.147 21.203C106.247 20.741 107.413 20.51 108.645 20.51C109.855 20.51 110.977 20.752 112.011 21.236C113.067 21.698 113.969 22.336 114.717 23.15C115.487 23.964 116.081 24.943 116.499 26.087C116.939 27.209 117.159 28.43 117.159 29.75V30.938H104.355C104.663 32.016 105.257 32.885 106.137 33.545C107.017 34.205 108.051 34.535 109.239 34.535C109.987 34.535 110.691 34.414 111.351 34.172C112.011 33.93 112.572 33.589 113.034 33.149L116.004 35.855ZM108.546 24.239C107.512 24.239 106.621 24.558 105.873 25.196C105.125 25.812 104.608 26.648 104.322 27.704H112.737C112.451 26.692 111.923 25.867 111.153 25.229C110.405 24.569 109.536 24.239 108.546 24.239Z"
          fill="#051E57"/>
    <path d="M119.198 38V20.807H123.719V22.688C124.269 21.94 124.929 21.379 125.699 21.005C126.491 20.609 127.36 20.411 128.306 20.411C128.746 20.433 129.109 20.477 129.395 20.543C129.703 20.587 129.967 20.675 130.187 20.807V24.767C129.857 24.613 129.494 24.503 129.098 24.437C128.702 24.349 128.295 24.305 127.877 24.305C126.997 24.305 126.183 24.525 125.435 24.965C124.709 25.405 124.137 26.043 123.719 26.879V38H119.198Z"
          fill="#051E57"/>
    <path d="M131.905 44.897V20.807H136.36V22.226C137.042 21.676 137.801 21.269 138.637 21.005C139.473 20.719 140.342 20.576 141.244 20.576C142.454 20.576 143.587 20.807 144.643 21.269C145.721 21.731 146.656 22.358 147.448 23.15C148.24 23.942 148.856 24.877 149.296 25.955C149.758 27.033 149.989 28.188 149.989 29.42C149.989 30.652 149.758 31.807 149.296 32.885C148.834 33.963 148.207 34.898 147.415 35.69C146.623 36.482 145.677 37.109 144.577 37.571C143.499 38.011 142.344 38.231 141.112 38.231C140.276 38.231 139.451 38.121 138.637 37.901C137.845 37.659 137.108 37.318 136.426 36.878V44.897H131.905ZM140.518 24.437C139.704 24.437 138.945 24.58 138.241 24.866C137.537 25.13 136.932 25.526 136.426 26.054V32.819C136.91 33.303 137.504 33.688 138.208 33.974C138.934 34.26 139.704 34.403 140.518 34.403C141.926 34.403 143.114 33.93 144.082 32.984C145.05 32.016 145.534 30.828 145.534 29.42C145.534 28.012 145.039 26.835 144.049 25.889C143.081 24.921 141.904 24.437 140.518 24.437Z"
          fill="#051E57"/>
    <path d="M157.631 38.297C155.783 38.297 154.276 37.813 153.11 36.845C151.944 35.855 151.361 34.579 151.361 33.017C151.361 31.389 151.988 30.113 153.242 29.189C154.496 28.265 156.223 27.803 158.423 27.803C159.127 27.803 159.831 27.858 160.535 27.968C161.239 28.078 161.932 28.243 162.614 28.463V27.242C162.614 26.252 162.306 25.504 161.69 24.998C161.074 24.492 160.172 24.239 158.984 24.239C158.258 24.239 157.466 24.36 156.608 24.602C155.772 24.822 154.815 25.174 153.737 25.658L152.087 22.325C153.429 21.709 154.727 21.247 155.981 20.939C157.257 20.631 158.511 20.477 159.743 20.477C162.053 20.477 163.846 21.038 165.122 22.16C166.42 23.26 167.069 24.822 167.069 26.846V38H162.614V36.812C161.888 37.318 161.118 37.692 160.304 37.934C159.512 38.176 158.621 38.297 157.631 38.297ZM155.684 32.918C155.684 33.578 155.97 34.106 156.542 34.502C157.114 34.876 157.873 35.063 158.819 35.063C159.567 35.063 160.249 34.975 160.865 34.799C161.503 34.601 162.086 34.326 162.614 33.974V31.4C162.064 31.18 161.481 31.026 160.865 30.938C160.271 30.828 159.644 30.773 158.984 30.773C157.95 30.773 157.136 30.971 156.542 31.367C155.97 31.741 155.684 32.258 155.684 32.918Z"
          fill="#051E57"/>
    <path d="M174.28 13.91V38H169.759V14.9L174.28 13.91Z" fill="#051E57"/>
    <defs>
        <linearGradient id="paint0_linear_303_910" x1="4" y1="33" x2="18.1314" y2="38.1387"
                        gradientUnits="userSpaceOnUse">
            <stop offset="0.000844595" stop-opacity="0.01"/>
            <stop offset="1"/>
        </linearGradient>
        <linearGradient id="paint1_linear_303_910" x1="16" y1="30.6977" x2="32" y2="30.6977"
                        gradientUnits="userSpaceOnUse">
            <stop offset="0.000844595" stop-opacity="0.01"/>
            <stop offset="1"/>
        </linearGradient>
        <linearGradient id="paint2_linear_303_910" x1="0" y1="8" x2="16" y2="8" gradientUnits="userSpaceOnUse">
            <stop offset="0.000844595" stop-opacity="0.01"/>
            <stop offset="1"/>
        </linearGradient>
    </defs>
</svg>
